<svg
  width="356"
  height="378"
  viewBox="0 0 356 378"
  fill="none"
  xmlns="http://www.w3.org/2000/svg"
>
  <g clip-path="url(#clip0_15_63)">
    <path
      d="M61.318 78.949C69.8056 70.499 88.7094 41.9718 102.595 32.8604C116.482 23.7489 152.392 6.46422 183.262 7.49223C214.131 8.52022 241.271 12.3832 256.057 20.9118C270.843 29.4405 279.283 45.2718 292.548 58.7979C305.811 72.3239 339.283 94.82 347.204 111.765C355.125 128.711 351.899 156.368 348.639 182.37C345.379 208.372 347.535 222.023 346.973 237.525C345.791 270.129 342.215 292.314 336.51 304.57C330.806 316.826 325.854 334.844 307.383 345.076C295.357 351.737 292.581 353.343 273.175 357.177C253.77 361.012 255.322 357.54 230.538 363.01C205.754 368.48 181.51 373.94 155.441 369.503C129.373 365.067 126.68 365.673 109.255 360.509C91.832 355.345 87.4592 353.226 79.1762 345.118C70.8931 337.009 51.1401 297.127 44.1885 274.643C37.2369 252.159 29.6744 252.865 20.2533 242.02C10.8322 231.175 1.2951 209.296 6.40621 199.811C11.5173 190.326 18.8742 174.174 18.6612 163.693C18.4482 153.213 11.9479 126.306 24.2224 117.779C36.4971 109.252 52.8303 87.3991 61.318 78.949Z"
      fill="white"
    />
    <path
      d="M183.853 30.7703C188.666 31.3129 188.187 33.3926 189.901 35.5206C191.615 37.6486 192.142 39.5922 191.821 41.5202C191.499 43.4483 191.544 43.3826 191.236 44.6504C190.927 45.9182 190.368 46.7445 190.211 47.9942C190.054 49.2439 190.079 49.6323 190.271 50.9467C190.463 52.2611 190.825 52.9223 191.438 54.6151C192.051 56.3079 193.165 58.2283 193.541 59.5568C193.917 60.8854 194.413 61.0153 193.938 61.2103C193.464 61.4052 193.868 61.2508 193.025 61.0442C192.183 60.8376 190.936 60.009 189.898 59.4463C188.859 58.8837 188.26 58.4042 187.687 58.199C187.115 57.9938 187.978 58.1781 187.138 58.0255C186.298 57.8729 188.034 60.4124 188.665 61.502C189.296 62.5917 189.611 62.9452 190.166 63.6869C190.721 64.4285 190.642 64.363 191.474 65.3217C192.305 66.2805 193.622 67.5471 194.63 68.3959C195.639 69.2447 195.679 69.1726 196.481 69.8352C197.283 70.4978 198.062 71.212 198.706 71.8206C199.35 72.4292 199.76 72.5349 199.82 72.9057C199.881 73.2765 199.894 72.5975 199.828 73.2747C199.761 73.9519 199.161 73.2445 196.727 72.9685C194.293 72.6925 190.483 71.8668 187.412 71.4963C184.34 71.1259 180.656 69.2077 181.027 70.8877C181.398 72.5676 181.625 71.8497 182.342 72.8917C183.058 73.9336 183.888 75.0736 184.776 76.1652C185.663 77.2567 186.055 77.5306 186.826 78.5234C187.597 79.5162 188.341 80.4952 188.702 81.2544C189.063 82.0137 189.337 81.892 189.085 82.1696C188.833 82.4473 189.876 82.3284 188.171 82.0036C186.466 81.6787 182.81 80.5302 180.483 79.9446C178.156 79.359 177.989 79.2538 176.275 78.9225C174.561 78.5912 172.925 78.4046 171.709 78.2768C170.494 78.1491 171.808 78.2497 170.069 78.1256C168.329 78.0015 165.418 78.0513 162.789 78.2735C160.159 78.4957 158.74 78.7496 156.616 79.1374C154.493 79.5253 153.528 79.7513 151.903 80.1563C150.278 80.5613 148.947 80.5685 148.282 81.1529C147.618 81.7374 149.153 80.0539 147.747 81.7176C146.341 83.3814 155.245 81.5639 158.125 81.6913C161.004 81.8188 160.889 81.6992 162.499 81.9716C164.109 82.244 164.659 82.5051 166.344 83.0011C168.029 83.497 169.278 83.8457 171.109 84.5657C172.94 85.2858 174.245 85.8922 175.704 86.6876C177.163 87.483 177.574 87.7713 178.654 88.4737C179.733 89.1761 180.263 89.5291 181.239 90.2673C182.214 91.0054 182.889 91.6127 183.646 92.249C184.403 92.8854 183.391 91.9985 185.128 93.5112C186.866 95.0238 190.627 98.6863 192.186 100.383C193.745 102.079 192.946 101.266 193.49 101.833C194.034 102.4 194.174 102.425 194.976 103.28C195.778 104.135 196.493 105.161 197.406 106.369C198.319 107.577 198.659 109.37 199.653 109.462C200.646 109.553 200.584 109.469 200.924 109.251C201.263 109.033 201.225 109.003 201.458 108.686C201.691 108.37 201.429 109.004 201.981 107.568C202.534 106.132 202.153 103.084 201.846 100.925C201.54 98.7661 201.341 98.2385 200.846 96.5147C200.351 94.7908 199.896 93.4983 199.3 92.1155C198.704 90.7327 198.189 90.0839 197.97 89.3734C197.751 88.6628 197.591 88.9129 197.774 88.6389C197.957 88.3649 197.798 88.5862 198.687 88.805C199.576 89.0238 200.854 89.8734 202.001 90.5837C203.147 91.294 203.978 91.8319 204.586 92.3772C205.194 92.9226 204.833 92.5898 205.329 93.1006C205.824 93.6114 206.309 94.214 207.008 95.0972C207.707 95.9804 208.178 96.5774 208.88 97.6436C209.582 98.7099 209.944 99.5712 210.578 100.563C211.212 101.554 211.509 102.383 212.079 102.748C212.65 103.112 212.445 103.035 212.815 103.102C213.184 103.169 213.551 103.028 213.902 102.895C214.254 102.762 212.743 103.68 214.623 102.511C216.503 101.342 212.248 91.3819 214.409 91.9929C216.571 92.6039 214.754 92.042 215.327 92.3435C215.9 92.6451 216.378 93.4102 216.998 93.971C217.617 94.5318 217.833 94.7362 218.48 95.2332C219.127 95.7301 219.669 96.1185 220.327 96.4879C220.985 96.8572 221.043 96.9972 221.798 97.1964C222.553 97.3957 223.584 97.3735 224.163 97.1484C224.742 96.9232 224.558 97.1227 224.883 96.7644C225.209 96.4062 224.965 96.0242 224.85 95.1037C224.735 94.1832 224.413 93.5776 223.88 92.1697C223.348 90.7618 222.662 89.3094 221.974 87.9625C221.285 86.6155 220.231 85.8757 220.461 85.224C220.692 84.5724 219.985 86.0401 220.636 84.8513C221.288 83.6625 224.794 86.6391 226.52 87.6854C228.246 88.7317 228.701 89.074 229.658 89.8369C230.616 90.5998 230.863 90.858 231.513 91.4607C232.162 92.0634 232.372 92.2413 232.999 92.9073C233.625 93.5734 233.815 93.8196 234.677 94.9039C235.539 95.9882 236.47 97.8142 237.3 98.5428C238.131 99.2713 237.931 99.059 238.225 99.2624C238.519 99.4658 238.006 99.2092 238.779 99.6203C239.551 100.031 241.905 100.112 242.6 99.5427C243.295 98.9738 242.671 99.6302 243.136 98.978C243.6 98.3257 243.19 97.3556 243.068 95.6565C242.946 93.9574 242.535 91.9326 242.231 90.3198C241.927 88.707 240.717 87.2542 241.625 87.3784C242.532 87.5026 242.141 87.7755 242.922 88.4596C243.703 89.1438 244.775 90.1983 245.522 90.9913C246.269 91.7844 246.245 91.8037 246.825 92.4417C247.406 93.0797 247.787 93.3793 248.501 94.2538C249.215 95.1282 249.478 95.6075 250.377 96.9847C251.276 98.3619 252.375 100.044 253.015 101.362C253.656 102.68 253.759 102.93 253.97 103.558C254.18 104.185 254.368 104.069 254.252 104.511C254.136 104.954 253.623 105.343 252.923 105.794C252.224 106.245 251.15 106.744 250.765 107.13C250.381 107.517 250.742 107.101 250.587 107.319C250.432 107.536 250.415 107.678 250.609 108.426C250.804 109.174 251.501 109.165 252.831 110.226C254.161 111.287 255.612 112.309 257.465 113.804C259.319 115.298 261.238 116.468 262.307 117.896C263.375 119.323 263.694 119.737 264.32 121.01C264.947 122.283 266.614 124.9 264.824 123.51C263.033 122.12 260.338 119.758 257.775 118.011C255.211 116.264 253.709 115.653 251.733 114.512C249.756 113.37 248.368 112.851 246.697 112.013C245.027 111.174 244.684 110.994 243.173 110.228C241.662 109.462 240.732 108.791 238.951 108.109C237.171 107.427 236.288 107.203 234.921 106.899C233.554 106.594 233.776 106.595 231.999 106.404C230.222 106.214 227.797 106.27 225.81 106.53C223.824 106.79 223.563 106.903 221.822 107.349C220.081 107.796 218.991 108.176 216.938 108.925C214.885 109.675 213.856 110.112 211.342 111.255C208.827 112.397 206.253 113.699 204.133 114.909C202.013 116.119 201.657 116.419 200.357 117.201C199.057 117.983 198.64 118.18 197.479 118.921C196.318 119.662 195.474 120.267 194.426 121.013C193.377 121.76 193.257 121.843 192.094 122.722C190.931 123.601 189.822 124.653 188.511 125.565C187.2 126.476 187.058 126.911 185.454 127.472C183.85 128.033 183.107 127.643 180.358 127.576C177.609 127.509 173.56 126.817 171.419 126.65C169.277 126.484 170.728 126.564 169.413 126.506C168.098 126.447 166.208 126.461 164.682 126.602C163.155 126.743 162.542 126.739 161.595 127.035C160.648 127.331 160.615 127.384 159.791 127.81C158.966 128.236 158.144 128.592 157.454 129.333C156.765 130.075 156.596 130.546 156.222 131.39C155.848 132.234 155.754 132.426 155.539 133.619C155.324 134.812 155.337 136.117 155.618 137.494C155.898 138.872 156.175 139.709 156.773 140.609C157.371 141.508 157.267 141.392 158.263 142.24C159.258 143.088 160.757 143.582 162.307 144.189C163.857 144.796 163.684 144.74 166.156 145.403C168.628 146.066 172.072 146.46 175.107 146.882C178.141 147.305 180.034 147.526 181.677 147.672C183.32 147.818 182.08 147.741 183.501 147.819C184.923 147.897 186.864 147.862 188.961 147.708C191.058 147.554 191.21 147.448 194.227 147.047C197.243 146.646 202.047 145.842 204.392 145.548C206.737 145.253 206.113 144.908 206.208 145.327C206.303 145.746 206.256 144.492 206.215 145.696C206.175 146.9 202.522 147.838 201.176 148.568C199.83 149.298 200.316 149.082 199.375 149.527C198.434 149.971 197.51 150.352 196.303 150.697C195.096 151.043 195.759 150.917 193.221 151.314C190.684 151.711 186.056 151.774 183.212 151.518C180.368 151.261 180.106 151.157 178.647 150.871C177.188 150.585 177.335 150.682 175.721 150.193C174.107 149.703 172.281 148.502 170.576 147.898C168.871 147.293 168.143 147.091 167.096 146.86C166.049 146.63 166.16 146.617 165.268 146.528C164.376 146.44 163.265 146.322 162.538 146.584C161.812 146.846 161.715 146.936 161.458 147.16C161.201 147.383 161.275 147.225 161.101 147.536C160.927 147.847 160.998 148.098 161.31 148.824C161.621 149.551 162.312 149.585 163.527 150.44C164.743 151.296 166.852 152.27 167.587 153.127C168.322 153.985 167.945 153.209 168.148 153.854C168.35 154.5 167.968 153.935 165.6 153.906C163.232 153.877 158.326 152.82 156.107 152.622C153.888 152.424 155.634 152.547 154.283 152.475C152.933 152.402 150.745 152.3 149.187 152.578C147.63 152.856 146.906 152.882 146.29 153.375C145.675 153.869 145.924 153.381 145.577 154.128C145.23 154.875 146.826 154.386 148.687 154.804C150.547 155.222 152.841 155.675 155.09 156.335C157.339 156.995 158.324 157.314 160.223 158.076C162.123 158.838 163.43 159.479 164.818 160.198C166.205 160.918 166.5 161.055 167.396 161.623C168.292 162.191 168.788 162.513 169.428 163.058C170.067 163.603 170.257 163.691 170.728 164.324C171.198 164.957 171.304 165.273 171.679 166.336C172.054 167.399 172.008 168.143 172.296 169.83C172.584 171.518 172.838 173.663 173.129 174.982C173.42 176.302 173.252 176.057 173.526 176.637C173.801 177.216 173.9 177.453 174.463 177.91C175.026 178.367 175.847 178.614 176.48 178.607C177.113 178.6 177.151 178.615 177.568 178.4C177.986 178.185 178.005 178.018 178.46 177.459C178.914 176.899 179.282 176.244 179.692 175.403C180.103 174.563 180.005 174.805 180.557 173.17C181.108 171.535 181.422 168.516 181.885 166.867C182.348 165.217 182.001 164.602 182.568 164.637C183.135 164.673 180.954 164.021 183.118 164.811C185.283 165.602 184.492 172.918 185.163 175.846C185.834 178.774 185.505 178.886 186.156 179.887C186.807 180.887 186.963 181.052 187.459 181.337C187.956 181.623 187.878 181.576 188.377 181.688C188.876 181.8 189.441 181.796 190.014 181.655C190.588 181.513 190.858 181.348 191.277 181.075C191.696 180.802 191.822 180.743 192.172 180.318C192.523 179.894 192.505 179.753 192.87 178.828C193.235 177.903 193.17 177.792 193.713 175.487C194.255 173.182 194.733 169.256 195.36 166.962C195.987 164.668 195.88 164.218 196.385 163.618C196.89 163.019 196.526 163.356 196.741 163.242C196.956 163.128 196.692 163.072 197.469 163.227C198.245 163.383 197.412 165.506 197.354 166.552C197.296 167.598 197.243 167.647 197.214 168.586C197.185 169.524 197.12 170.379 197.27 171.354C197.42 172.329 197.476 172.642 197.861 173.557C198.246 174.473 198.738 175.243 199.366 175.926C199.994 176.61 200.197 176.762 200.848 177.189C201.499 177.615 202.005 178.005 202.686 178.074C203.368 178.143 203.774 178.222 204.138 177.86C204.503 177.497 203.996 178.568 204.48 176.746C204.965 174.924 202.588 167.838 204.308 168.257C206.028 168.677 204.286 168.186 204.857 168.43C205.429 168.675 206.024 169.825 206.536 170.427C207.047 171.028 206.735 171.022 207.468 171.516C208.202 172.01 207.167 171.647 210.563 171.453C213.958 171.259 221.175 168.903 224.516 168.216C227.856 167.528 226.18 167.799 227.599 167.599C229.017 167.398 230.244 167.268 231.78 167.329C233.316 167.389 234.106 167.495 235.431 167.809C236.755 168.122 237.358 168.337 238.547 168.854C239.736 169.37 240.355 169.659 241.493 170.455C242.631 171.252 243.419 172.119 244.275 172.983C245.131 173.847 245.159 173.855 245.951 174.794C246.742 175.734 247.301 176.507 248.199 177.887C249.096 179.268 249.883 180.591 250.464 181.903C251.045 183.216 251.494 183.788 251.427 184.468C251.359 185.148 251.63 184.374 251.26 185.21C250.89 186.045 249.133 184.198 247.764 183.434C246.396 182.671 245.734 182.131 244.262 181.29C242.789 180.449 241.568 179.691 240.213 179.158C238.858 178.625 238.961 178.571 237.465 178.291C235.969 178.01 234.227 178.031 232.551 178.39C230.875 178.75 230.005 179.166 228.938 179.756C227.87 180.346 227.495 180.607 226.962 181.089C226.429 181.571 226.235 181.74 226.071 182.03C225.906 182.32 225.995 181.962 225.896 182.403C225.797 182.844 226.649 182.597 227.728 182.918C228.807 183.24 229.994 183.586 231.394 184.136C232.793 184.686 233.706 185.043 234.885 185.728C236.064 186.412 236.727 186.938 237.47 187.52C238.213 188.102 238.066 187.934 238.766 188.602C239.467 189.271 240.009 190.048 240.821 191.145C241.633 192.242 242.023 192.825 242.887 194.241C243.751 195.657 244.491 197.358 245.157 198.44C245.824 199.523 245.496 199.473 246.097 199.899C246.698 200.324 247.215 200.097 248.106 200.227C248.997 200.357 250.571 199.976 250.662 200.544C250.752 201.112 250.732 200.292 250.669 200.913C250.606 201.534 249.085 201.394 247.955 201.707C246.824 202.021 246.366 202.27 244.875 202.508C243.384 202.746 241.558 202.915 240.325 202.6C239.093 202.286 239.516 202.344 238.491 201.9C237.465 201.455 236.612 200.854 235.178 200.121C233.743 199.387 232.216 198.513 231.132 198.172C230.048 197.832 230.841 197.744 229.851 197.829C228.861 197.915 229.542 200.502 229.198 201.534C228.853 202.567 228.918 202.695 228.504 203.21C228.089 203.725 227.799 203.886 227.249 204.159C226.279 204.638 225.304 204.865 224 205C221.993 205.207 219.833 204.642 218.877 204.329C218.841 204.837 219.086 205.617 219.086 205.617L219.833 206.525C219.833 206.525 220.036 206.749 221.849 207.222C223.663 207.695 227.077 207.316 229.31 207.07C231.544 206.825 232.373 206.473 233.304 206.435C234.235 206.397 233.842 206.184 234.032 206.42C234.221 206.657 233.952 206.665 233.682 207.166C233.412 207.668 232.904 208.311 232.442 208.853C231.98 209.395 231.546 209.565 231.372 209.982C231.198 210.399 231.127 210.21 231.206 210.723C231.284 211.237 232.106 210.973 233.037 211.24C233.967 211.507 235.487 211.67 235.967 212.104C236.447 212.538 235.938 212.024 236.153 212.285C236.369 212.547 236.505 213.059 236.183 213.761C235.862 214.463 234.681 214.28 233.832 214.547C232.983 214.814 233.858 214.608 231.842 215.141C229.825 215.675 225.364 215.528 223.307 216.238C221.25 216.948 221.572 216.862 220.959 217.209C220.347 217.556 220.476 217.69 220.061 217.781C219.647 217.873 219.798 217.834 218.965 217.619C218.133 217.403 217.088 216.516 216.198 215.829C215.308 215.141 215.104 214.839 214.345 214.205C213.586 213.57 213.183 213.319 212.309 212.585C211.436 211.851 211.67 212.044 209.898 210.418C208.126 208.793 204.946 205.973 203.397 204.089C201.848 202.206 202.093 202.57 201.339 201.363C200.586 200.155 200.371 199.389 199.63 197.89C198.889 196.39 198.311 194.861 197.542 193.686C196.773 192.511 196.675 192.217 196.045 191.685C195.414 191.154 195.087 191.012 194.57 190.793C194.053 190.573 194.348 190.646 193.471 190.445C192.593 190.244 191.034 190.181 190.013 190.515C188.993 190.85 188.887 190.901 188.211 191.475C187.536 192.05 187.309 192.559 186.797 193.535C186.284 194.512 186.295 194.617 185.765 196.51C185.236 198.403 185.204 200.039 184.812 203.36C184.42 206.681 184.322 208.263 183.926 213.531C183.531 218.799 183.009 225.583 182.994 230.349C182.979 235.116 182.579 236.02 183.148 237.915C183.717 239.81 183.675 239.518 184.106 240.296C184.537 241.074 184.664 241.21 185.232 241.934C185.8 242.659 186.201 243.128 187.093 243.927C187.984 244.725 188.827 245.381 189.864 245.902C190.901 246.423 191.032 246.525 192.249 246.776C193.466 247.026 195.105 247.02 196.071 246.698C197.036 246.376 196.051 246.782 197.333 246.119C198.615 245.456 200.56 243.249 201.99 242.332C203.419 241.415 202.794 241.683 204.33 240.992C205.865 240.301 208.598 240.253 210.13 239.767C211.662 239.28 211.751 239.251 212.299 238.985C212.847 238.718 212.531 239.057 213.019 238.6C213.508 238.142 212.855 237.214 212.603 236.024C212.352 234.833 212.075 233.9 211.622 232.537C211.169 231.174 210.499 229.941 210.277 229.057C210.055 228.172 209.826 228.461 210.076 228.137C210.326 227.814 210.536 228.186 211.176 228.484C211.816 228.783 212.113 229.272 213.029 230.108C213.945 230.944 214.964 232.063 215.815 232.821C216.666 233.579 216.601 233.457 217.297 234.083C217.994 234.709 218.695 235.392 219.34 236.072C219.986 236.752 219.863 236.692 220.644 237.523C221.425 238.353 222.65 239.404 223.431 240.235C224.212 241.065 224.154 241.047 224.735 241.685C225.315 242.323 225.753 242.754 226.409 243.497C227.066 244.24 227.352 244.576 228.089 245.494C228.825 246.412 229.458 247.182 230.147 248.221C230.836 249.259 231.186 249.876 231.655 250.775C232.124 251.673 232.262 251.929 232.607 252.787C232.952 253.644 233.163 254.126 233.384 255.17C233.604 256.215 233.645 256.996 233.626 258.119C233.607 259.242 233.56 259.505 233.318 260.895C233.075 262.285 232.821 263.178 232.13 265.165C231.44 267.152 230.409 269.211 229.517 270.94C228.625 272.67 228.363 273.14 227.76 274.115C227.157 275.09 227.108 275.959 226.524 275.986C225.94 276.013 226.53 276.083 225.792 275.816C225.054 275.549 224.751 274.605 223.738 273.273C222.725 271.941 221.654 270.083 220.736 268.904C219.818 267.726 219.881 267.642 219.242 267.088C218.604 266.534 218.124 266.184 217.583 266.014C217.041 265.844 217.622 265.993 216.669 265.848C215.716 265.704 215.79 265.789 212.662 265.745C209.533 265.7 205.838 265.854 200.65 265.989C195.463 266.124 189.715 266.256 186.094 266.47C182.474 266.684 183.442 266.534 182.095 266.735C180.748 266.936 180.513 266.988 179.194 267.348C177.876 267.708 176.296 268.458 175.398 268.718C174.5 268.977 174.802 268.697 174.675 268.917C174.548 269.138 174.537 267.766 174.686 269.47C174.835 271.175 178.974 269.706 182.887 269.858C186.799 270.009 190.281 270.123 194.727 270.171C199.172 270.22 206.102 267.816 205.65 270.133C205.198 272.45 205.545 270.613 205.308 271.248C205.072 271.883 204.82 272.401 204.258 273.3C203.696 274.199 203.052 275.081 202.305 275.74C201.558 276.4 201.368 276.542 200.689 276.88C200.011 277.218 200.887 276.882 198.88 277.471C196.874 278.06 192.67 278.229 190.168 278.756C187.666 279.282 187.372 279.306 186.001 279.763C184.63 280.221 184.171 280.361 183.112 280.929C182.052 281.497 181.359 282.071 180.598 282.642C179.837 283.212 179.787 283.176 179.164 283.779C178.542 284.383 178.082 284.994 177.567 285.842C177.053 286.69 176.808 286.948 176.52 288.079C176.232 289.21 176.254 290.301 176.591 291.585C176.928 292.869 177.497 293.685 178.107 294.508C178.717 295.33 178.868 295.392 179.412 295.959C179.956 296.526 180.095 296.762 180.898 297.405C181.701 298.048 182.378 298.363 183.661 299.01C184.945 299.657 185.802 300.024 187.516 300.593C189.23 301.162 190.386 301.415 192.456 301.785C194.527 302.155 194.558 302.162 198.113 302.409C201.668 302.656 207.724 302.703 210.67 302.154C213.616 301.605 212.094 301.951 213.389 301.544C214.685 301.137 215.806 300.564 217.177 299.806C218.547 299.048 219.377 298.554 220.411 297.71C221.445 296.866 221.862 296.34 222.554 295.635C223.245 294.93 223.374 294.852 223.98 294.13C224.585 293.407 224.882 292.765 225.573 291.882C226.263 290.999 226.8 289.603 227.529 289.627C228.259 289.65 227.623 289.549 228.261 289.797C228.899 290.044 229.403 291.4 229.944 291.977C230.485 292.554 230.443 292.521 230.872 292.881C231.302 293.241 231.683 293.555 232.166 293.778C232.649 294.001 232.722 294.056 233.265 294.125C233.807 294.194 233.678 294.163 234.899 293.908C236.121 293.652 237.869 292.678 239.23 291.973C240.59 291.268 240.715 291.232 241.929 290.441C243.144 289.65 244.268 288.733 245.335 287.787C246.401 286.842 246.601 286.627 247.477 285.713C248.354 284.799 249.038 284.045 249.79 283.082C250.542 282.118 250.722 281.817 251.383 280.834C252.044 279.85 252.272 279.571 253.146 278.03C254.021 276.488 254.662 275.025 255.59 272.811C256.518 270.596 257.248 268.387 257.831 266.673C258.414 264.959 257.913 264.34 258.689 264.071C259.465 263.802 259.433 264.563 260.149 264.226C260.865 263.89 260.106 263.085 260.096 261.643C260.086 260.201 260.139 260.554 260.181 256.841C260.223 253.128 259.467 245.488 260.074 242.628C260.681 239.768 259.772 244.114 260.24 241.887C260.708 239.66 260.076 233.539 260.384 230.992C260.692 228.444 260.462 230.641 260.702 228.77C260.942 226.898 260.785 224.319 261.28 221.374C261.775 218.428 262.226 217.789 263.31 213.764C264.395 209.738 265.743 204.864 266.87 200.769C267.997 196.673 268.363 195.652 269.074 192.785C269.785 189.919 270.063 188.572 270.577 186.109C271.091 183.646 271.573 181.749 271.731 180.179C271.888 178.609 272.301 178.797 271.872 178.144C271.442 177.492 270.412 177.751 270.037 177.443C269.662 177.136 269.992 177.504 269.665 177.082C269.338 176.66 269.503 176.445 269.62 174.867C269.737 173.29 270.837 171.251 271.509 169.291C272.182 167.331 272.527 166.499 273.058 164.828C273.588 163.158 273.901 162.161 274.249 160.743C274.596 159.326 274.634 159.32 274.913 157.591C275.192 155.862 275.263 154.35 275.342 151.859C275.422 149.369 275.366 147.007 275.2 144.848C275.034 142.689 275.044 142.707 274.754 140.795C274.464 138.883 274.075 136.648 273.545 135.097C273.015 133.547 272.853 133.358 272.587 132.716C272.321 132.074 272.019 132.206 272.204 131.801C272.389 131.396 272.839 131.779 273.481 131.96C274.124 132.141 274.37 132.282 275.324 133.03C276.279 133.778 276.92 135.054 277.757 136.304C278.594 137.555 279.065 138.362 279.641 139.403C280.218 140.445 280.377 140.597 280.778 141.596C281.178 142.595 281.335 143.418 281.566 144.533C281.797 145.649 281.858 146.215 281.986 147.294C282.115 148.374 281.99 147.11 282.225 150.058C282.46 153.006 282.506 158.892 282.84 162.414C283.174 165.936 283.089 166.72 283.502 168.124C283.915 169.528 283.59 169.24 284.081 169.773C284.573 170.307 284.856 170.126 285.917 170.475C286.978 170.825 287.13 170.942 289.575 171.323C292.021 171.704 297.857 169.362 298.493 171.142C299.129 172.922 298.602 171.412 298.69 171.877C298.777 172.342 298.769 172.664 298.724 173.538C298.678 174.412 298.555 174.749 298.234 176.316C297.913 177.883 297.617 178.927 296.883 181.513C296.15 184.098 295.216 186.673 294.315 189.504C293.414 192.334 293.153 192.932 292.262 196.007C291.371 199.081 290.501 202.41 289.901 205.285C289.301 208.159 289.027 208.874 288.918 210.659C288.81 212.443 288.771 213.124 288.993 214.349C289.216 215.574 289.381 216.498 289.774 216.918C290.167 217.337 289.62 216.813 289.959 217.099C290.298 217.384 290.503 217.28 291.965 217.242C293.428 217.204 295.122 216.448 297.213 215.659C299.304 214.87 300.838 214.072 302.623 213.149C304.408 212.225 305.037 211.868 306.404 211.041C307.771 210.215 308.301 209.868 309.638 208.945C310.975 208.023 312.259 206.61 313.226 206.288C314.192 205.966 313.359 206.051 313.95 206.088C314.541 206.125 313.815 207.085 313.449 208.314C313.083 209.542 312.511 210.962 311.708 212.226C310.906 213.49 310.255 214.098 309.577 214.854C308.899 215.609 308.851 215.655 308.329 216.171C307.807 216.688 307.528 216.904 306.899 217.493C306.27 218.081 305.845 218.525 305.113 219.19C304.381 219.855 303.878 220.227 303.145 220.892C302.413 221.557 302.091 221.925 301.358 222.59C300.626 223.255 300.196 223.557 299.391 224.292C298.585 225.026 297.949 225.706 297.248 226.366C296.547 227.025 296.555 226.992 295.818 227.687C295.081 228.382 294.252 229.091 293.498 229.95C292.744 230.808 292.559 231.205 291.901 232.012C291.243 232.82 290.791 233.168 290.123 234.079C289.455 234.99 289.124 235.603 288.537 236.696C287.95 237.788 287.529 238.723 287.141 239.678C286.753 240.632 286.454 240.854 286.451 241.538C286.448 242.223 286.477 242.491 286.845 243.007C287.213 243.523 287.534 243.617 288.32 243.901C289.106 244.185 289.942 244.104 290.871 244.033C291.8 243.962 292.269 243.863 293.048 243.62C293.826 243.376 293.543 243.498 294.852 242.845C296.161 242.192 298.117 240.512 299.338 239.615C300.559 238.718 300.618 238.587 301.132 238.286C301.645 237.986 301.559 237.974 301.852 237.902C302.145 237.83 301.916 237.725 302.58 237.888C303.244 238.05 302.55 239.285 302.454 240.659C302.358 242.033 302.281 242.92 301.995 244.915C301.708 246.91 301.379 248.896 300.841 250.846C300.303 252.795 300.052 253.639 299.467 254.934C298.882 256.23 298.587 256.804 298.064 257.547C297.541 258.291 297.678 258.191 296.999 258.861C296.319 259.531 295.657 259.878 294.303 260.577C292.948 261.277 292.11 261.474 289.965 262.143C287.82 262.812 287.071 262.923 283.261 263.757C279.45 264.591 274.495 265.372 270.382 266.049C266.268 266.725 263.776 265.231 262.214 267.322C260.652 269.413 261.895 269.13 261.224 272.327C260.553 275.524 259.424 279.911 258.541 283.642C257.657 287.373 257.202 289.148 256.697 291.433C256.191 293.719 256.066 293.983 255.865 295.327C255.664 296.671 255.676 296.665 255.562 298.288C255.447 299.91 255.48 301.66 255.488 303.642C255.497 305.625 255.487 306.314 255.586 308.44C255.685 310.566 255.803 313.174 256.073 314.523C256.343 315.871 256.299 315.112 256.274 315.442C256.249 315.771 255.449 315.655 254.822 315.655C254.194 315.655 252.313 315.57 251.2 316.013C250.087 316.455 250.15 316.399 249.186 317.013C248.221 317.626 247.415 318.713 246.708 319.513C246.001 320.313 245.952 320.465 245.464 321.015C244.976 321.564 245.087 321.485 244.215 322.332C243.344 323.18 241.921 324.833 241.128 326.014C240.334 327.195 239.816 327.562 239.422 328.337C239.028 329.112 239.215 329.127 238.724 329.828C238.233 330.53 237.163 331.045 236.575 331.533C235.986 332.021 237.446 330.886 235.679 332.29C233.913 333.693 229.562 335.188 226.112 336.361C222.662 337.534 221.367 337.797 218.147 338.554C214.926 339.311 213.517 339.551 209.623 340.204C205.729 340.856 201.876 341.323 198.184 341.729C194.491 342.134 194.78 342.16 190.734 342.434C186.688 342.709 181.862 342.872 177.449 342.704C173.036 342.537 171.318 342.329 168.149 341.97C164.98 341.611 163.635 341.443 161.211 341.004C158.787 340.565 157.724 340.292 155.724 339.823C153.725 339.354 152.828 339.166 150.967 338.628C149.106 338.09 148.14 337.773 146.201 337.062C144.263 336.351 142.737 335.735 141.06 334.952C139.384 334.17 139.039 333.938 137.565 333.177C136.091 332.415 134.835 331.874 133.517 331.044C132.199 330.214 131.94 329.943 130.746 329.07C129.552 328.196 128.799 327.671 127.417 326.553C126.035 325.435 124.845 324.24 123.71 323.305C122.574 322.371 122.539 322.354 121.674 321.684C120.809 321.015 120.058 320.335 119.271 319.888C118.485 319.441 118.334 319.215 117.8 319.179C117.266 319.142 118.085 319.059 116.712 319.386C115.338 319.713 112.721 321.95 111.309 322.265C109.897 322.581 110.578 322.796 110.039 322.475C109.5 322.154 110.125 321.959 110.547 320.618C110.968 319.278 111.93 317.634 112.633 315.777C113.337 313.92 113.733 312.769 114.178 311.13C114.622 309.49 114.785 308.942 115.012 307.421C115.239 305.899 115.23 305.302 115.294 303.353C115.357 301.405 115.295 299.682 115.174 297.448C115.053 295.215 114.963 293.934 114.697 291.92C114.431 289.906 114.243 288.785 113.871 287.137C113.499 285.488 113.369 285.046 112.887 283.465C112.405 281.884 111.986 280.673 111.341 279.066C110.697 277.458 110.278 276.11 109.624 275.224C108.97 274.337 109.169 274.472 108.691 274.135C108.214 273.799 108.344 273.948 107.224 273.611C106.104 273.274 104.628 273.281 102.842 272.962C101.056 272.643 100.545 272.431 98.0875 271.95C95.6297 271.47 92.4647 271.18 90.2321 270.634C87.9996 270.088 87.9314 270.083 86.5698 269.6C85.2082 269.117 84.6389 268.871 83.2641 268.191C81.8893 267.511 80.7952 266.834 79.5792 266.05C78.3633 265.267 77.9728 265.029 76.9939 264.256C76.015 263.483 75.5638 263.005 74.5831 262.09C73.6023 261.175 72.9793 260.686 71.9827 259.558C70.9861 258.431 70.4693 257.635 69.5494 256.285C68.6295 254.935 68.2404 254.339 67.2905 252.639C66.3407 250.939 66.084 250.353 64.8196 247.52C63.5552 244.688 62.2575 240.465 61.1668 237.995C60.0761 235.524 60.2396 235.915 59.6434 234.703C59.0472 233.491 58.8002 232.811 58.1275 231.78C57.4549 230.749 56.8986 229.804 56.2589 229.418C55.6192 229.031 55.7857 229.108 55.5234 229.064C55.2611 229.019 55.8032 228.949 54.9775 229.075C54.1517 229.2 54.2909 231.617 53.7748 232.607C53.2587 233.597 53.2083 233.699 52.7166 234.29C52.2249 234.88 51.8906 235.567 51.287 235.611C50.6834 235.655 50.583 235.441 50.1875 235.264C49.7921 235.088 49.598 234.98 49.2663 234.729C48.2151 233.932 48.1874 232.68 47.5684 231.81C46.9494 230.939 46.8654 230.44 46.2608 230.175C45.6563 229.91 45.6122 229.912 44.9831 230.016C44.3541 230.12 44.0863 231.069 43.3677 231.157C42.6492 231.245 42.4997 230.978 41.7186 230.636C40.9374 230.295 40.217 229.787 39.5047 229.205C38.7924 228.623 38.6128 228.425 38.0188 227.758C37.4248 227.091 37.2092 226.775 36.5216 225.758C35.834 224.741 35.3462 223.862 34.6342 222.473C33.9222 221.083 33.4711 220.067 32.9176 218.631C32.3642 217.195 32.199 216.722 31.7544 215.148C31.3098 213.574 31.0057 212.03 30.7507 210.552C30.4957 209.075 30.5443 209.618 30.3267 207.607C30.1091 205.596 29.9989 202.573 30.1766 200.226C30.3544 197.879 30.4155 196.92 30.8109 195.598C31.2062 194.276 31.1471 193.834 31.6758 193.365C32.2045 192.896 32.1392 192.946 32.7564 192.79C33.3736 192.634 33.7442 192.865 34.7658 193.118C35.7874 193.371 36.9798 194.362 37.8859 194.347C38.7919 194.331 38.573 194.379 39.156 194.136C39.7391 193.893 39.9842 193.432 40.5856 192.815C41.1871 192.197 41.4844 191.809 42.186 190.936C42.8877 190.063 43.2697 189.483 44.1354 188.313C45.0011 187.142 45.8374 186.12 46.6157 184.938C47.394 183.757 47.5159 183.618 48.2011 182.322C48.8862 181.025 49.2213 180.004 49.9384 178.226C50.6555 176.447 51.0475 175.018 51.839 173.202C52.6306 171.386 53.1761 170.206 53.9366 168.913C54.6972 167.621 55.3179 167.167 55.5258 166.482C55.7337 165.797 55.9249 165.859 55.6927 165.739C55.4605 165.619 55.5914 165.713 55.1505 165.935C54.7097 166.157 54.4906 166.804 53.9066 167.438C53.3227 168.072 52.9349 168.302 52.1205 169.135C51.3061 169.969 50.7464 170.668 49.8071 171.767C48.8678 172.866 48.243 174.45 47.3194 174.771C46.3958 175.092 46.5252 175.159 46.2312 174.977C45.9371 174.796 46.0816 174.868 45.8559 174.432C45.6303 173.995 45.663 173.609 45.6365 172.59C45.61 171.571 45.729 170.466 46.1149 169.257C46.5007 168.049 46.8045 167.575 47.5145 166.459C48.2244 165.344 49.2065 164.419 49.8241 163.644C50.4418 162.869 50.1832 163.102 50.7116 162.518C51.24 161.933 51.8761 161.482 52.6797 160.816C53.4833 160.15 53.8876 159.788 54.8298 159.111C55.772 158.435 56.4378 158.067 57.5258 157.395C58.6139 156.723 59.3526 156.386 60.4038 155.675C61.4551 154.964 62.1588 154.425 62.9142 153.778C63.6695 153.131 63.58 153.285 64.3439 152.456C65.1077 151.628 65.7401 150.591 66.4639 149.275C67.1878 147.958 67.2255 147.747 68.0305 145.735C68.8355 143.723 69.4462 141.253 70.2576 138.859C71.069 136.466 71.3366 135.896 72.1506 133.468C72.9647 131.04 73.5088 128.796 74.374 126.407C75.2392 124.018 75.6605 123.01 76.4528 121.196C77.2452 119.382 77.5502 118.664 78.3721 117.096C79.1941 115.528 79.7579 114.594 80.6593 113.173C81.5606 111.751 82.0509 111.007 82.9575 109.803C83.8642 108.598 84.5088 107.943 85.2672 106.987C86.0255 106.03 86.1386 105.842 86.8638 104.924C87.5891 104.005 88.2214 103.169 88.9951 102.296C89.7687 101.422 90.1925 101.08 90.7775 100.413C91.3625 99.7467 91.4 99.648 92.0214 98.9112C92.6429 98.1745 93.2873 97.5023 93.9782 96.6562C94.6692 95.8101 94.9494 95.3621 95.5749 94.5931C96.2003 93.824 96.6574 93.2012 97.1753 92.7144C97.6932 92.2277 97.6318 92.3815 98.0702 91.9578C98.5086 91.5341 98.5031 91.3954 99.3141 90.4557C100.125 89.516 101.343 88.1885 102.344 87.2558C103.346 86.323 103.437 86.3264 104.312 85.5542C105.187 84.782 105.636 84.2977 106.815 83.2881C107.994 82.2785 108.964 81.5924 110.398 80.4461C111.833 79.2997 112.756 78.4851 114.16 77.4159C115.565 76.3467 116.097 76.0209 117.569 74.9467C119.041 73.8726 119.809 73.2545 121.695 71.9091C123.581 70.5638 125.393 69.318 127.262 68.1038C129.13 66.8896 129.464 66.6768 131.216 65.6235C132.968 64.5703 134.317 63.76 136.256 62.7519C138.195 61.7439 139.363 61.2654 141.125 60.4377C142.886 59.6101 143.798 59.2674 145.273 58.5073C146.747 57.7473 147.66 57.2975 148.693 56.5916C149.726 55.8857 149.88 55.8007 150.665 55.0747C151.449 54.3488 151.657 54.0943 152.622 52.8196C153.588 51.5449 153.707 50.5996 155.262 48.3354C156.817 46.0713 158.006 44.7033 161.116 41.6728C164.227 38.6423 167.048 35.3999 171.716 33.5231C176.384 31.6462 179.04 30.2276 183.853 30.7703Z"
      fill="#181c25"
    />
    <path
      d="M174.676 22.0959L194.869 21.6854L200.516 21.9399L205.624 22.5744L210.009 23.4084L214.765 24.604L222.458 27.0321L229.617 30.025L234.944 32.5011L238.628 34.6416L241.762 36.6086L245.085 38.941L247.673 40.919L250.265 43.0817L252.304 44.8863L253.785 46.1485L262.512 54.6477L264.565 57.1905L267.35 59.9029L268.653 61.3533L270.328 63.1654L272.56 65.5199L285.928 78.54L287.231 79.9904L290.758 83.4263L291.324 84.3378L292.986 85.5962L296.329 88.8513L297.811 90.1134L308.207 100.24L310.242 101.86L312.838 104.207L314.687 105.647L318.393 108.894L320.617 110.88L322.099 112.142L322.106 112.511L322.842 112.865L324.888 115.039L327.127 117.762L329.389 121.593L330.927 125.624L331.718 128.746L332.339 132.425L332.564 143.497L332.134 149.229L331.486 153.119L331.129 153.495L329.306 153.347L327.825 152.085L326.332 150.27L324.077 146.808L321.834 143.9L319.599 141.361L317.75 139.921L315.904 138.667L313.51 137.239L310.747 135.634L306.878 133.312L303.74 131.16L300.784 129.005L298.193 126.843L295.968 124.857L294.112 123.049L291.309 119.414L288.876 116.14L285.125 110.678L282.492 106.486L279.862 102.478L277.801 99.5659L276.123 97.5693L273.888 95.0303L270.379 92.5171L262.452 87.5092L260.049 85.7119L258.196 84.0881L256.711 82.6414L254.282 79.5525L252.229 77.0097L249.803 74.1053L247.386 71.5698L246.082 70.1195L244.408 68.3075L242.374 66.6873L240.153 64.8864L236.462 62.3769L231.676 59.7051L227.822 58.1219L218.662 55.1697L214.994 53.7675L212.602 52.5238L210.75 50.9L209.825 50.1804L207.958 47.8184L204.942 42.7107L202.104 37.4147L199.846 33.7685L198.164 31.5873L196.118 29.4136L192.802 27.4503L189.497 26.0406L186.39 25.3653L185.295 25.203L177.472 25.362L174.391 25.9785L170.961 27.3404L167.902 29.0641L164.855 31.3414L163.066 32.8545L160.033 35.8699L158.786 37.1875L157.016 39.6235L155.241 41.8748L153.123 45.0562L150.817 48.0568L149.217 49.9354L147.432 51.6332L144.195 53.5451L137.889 56.627L132.844 59.1295L128.523 61.4325L124.747 63.7246L120.976 66.2012L116.67 69.2424L113.445 71.7079L111.117 73.6013L108.255 76.0595L106.288 77.7609L104.503 79.4586L103.074 80.7799L101.288 82.4777L99.8587 83.799L98.6116 85.1166L97.1826 86.4379L93.6192 90.2025L92.3758 91.7047L90.4198 93.9597L89.1764 95.4619L87.5767 97.3405L86.1589 99.2154L83.6758 102.404L81.0222 106.15L79.2554 108.771L76.6168 113.255L75.0358 116.056L72.939 120.344L71.2024 124.442L69.4771 129.092L65.2106 143.024L63.8077 145.637L62.3899 147.512L60.9609 148.834L58.626 150.358L56.1091 151.886L54.1419 153.587L51.4619 156.041C51.4619 156.041 49.8387 157.659 48.7857 158.68C45.5955 161.778 44.7284 165.354 40.4353 166.416C37.4942 163.552 36.5611 160.15 34.9457 156.377C32.8467 151.476 32.5405 149.438 32.0451 144.118C31.7444 140.89 31.8763 135.815 31.8763 135.815L33.056 131.176L37.2344 121.86L40.4601 119.395L43.5076 117.118L45.6606 115.597L49.959 112.187L51.9264 110.485L53.7118 108.788L55.1408 107.466L57.2825 105.392L60.8534 101.996L73.5373 87.1032L74.7807 85.601L76.3805 83.7224L79.4092 80.5225L80.6526 79.0204L88.1356 71.1147L89.3789 69.6125L90.9786 67.7339L93.1166 65.4752L94.36 63.973L96.4942 61.5298L98.4503 59.2747L105.221 52.122L107.726 50.0403L109.155 48.719L110.945 47.2058L114.349 44.5521L117.217 42.4631L123.669 37.5321L126.182 35.8196L129.961 33.7121L137.181 30.7961L143.325 28.6406L152.19 26.0605L159.251 24.2555L165.05 23.03L167.408 22.6129L169.587 22.384L174.676 22.0959ZM327.58 229.626L327.945 229.619L328.345 231.457L328.558 232.929L328.753 242.525L328.098 255.092L327.183 263.786L325.893 271.936L324.902 276.94L323.062 284.915L320.503 293.275L319.126 297.18L317.048 302.391L314.262 308.54L312.688 311.711L310.932 314.884L308.995 318.062L306.879 321.428L305.113 324.048L302.281 327.983L300.151 330.61L298.551 332.489L296.235 334.936L295.337 335.508L293.146 335.184L288.739 333.243L284.146 331.121L279.004 328.825L273.122 325.991L268.897 324.046L267.059 323.16L264.289 321.186L262.797 319.37L261.289 316.816L259.948 313.521L259.156 310.398L258.948 309.11L258.836 303.574L259.466 298.762L261.969 287.634L264.518 278.722L266.233 273.518L267.108 271.839L268.173 270.525L270.345 269.927L281.942 267.475L289.549 265.659L296.606 263.67L301.662 261.721L304.899 259.809L307.227 257.916L309.361 255.473L310.954 253.225L312.716 250.42L315.176 246.124L317.463 242.2L318.873 239.956L321.348 236.398L322.948 234.52L324.191 233.018L325.791 231.14L327.58 229.626ZM61.3209 256.084C61.5698 256.257 61.8977 257.069 62.2293 257.568C62.7357 258.332 62.6136 258.425 63.3896 259.364C63.8414 259.911 64.6892 260.63 64.6892 260.63L66.5384 262.07L69.1265 264.048L72.4534 266.565L76.6975 269.432L79.2743 270.857L83.3064 272.251L85.8645 272.753L94.4369 273.686L99.0074 274.702L103.403 276.089L105.794 277.332L106.912 278.602L107.86 280.429L109.405 284.828L110.98 290.704L111.79 294.749L112.006 296.406L112.208 306.371L111.4 311.371L110.035 315.83L108.636 318.627L106.683 321.067L104.902 322.949L100.952 325.614L95.1947 328.869L90.8813 331.541L89.6041 331.382L88.312 330.486L85.8795 327.212L82.8789 322.843L80.4352 319.016L77.7908 314.27L76.2793 311.531L73.8094 306.412L71.9039 302.205L69.2146 295.244L67.086 289.011L64.9274 281.302L63.5264 275.054L62.0731 266.221L61.3182 260.024C61.3182 260.024 60.8153 255.733 61.3209 256.084Z"
      fill="#181c25"
    />
    <path
      d="M163.385 214.318L164.672 214.292L164.859 214.473L164.762 218.721L163.937 223.352L162.554 227.626L160.792 231.355L159.187 233.787L156.687 237.346L154.17 240.166L152.007 242.241L149.289 244.142L147.099 244.925L145.263 244.962L143.406 244.077L142.278 242.808L141.314 240.612L139.89 233.81L139.676 232.338L139.59 228.093L140.834 226.037L142.994 223.778L146.26 221.681L151.534 218.99L159.374 215.877L163.385 214.318ZM213.371 241.177L214.293 241.344L215.617 243.163L218.278 247.539L220.753 251.736L222.657 255.02L225.331 259.949L226.1 261.595L224.446 261.629L223.145 260.917L221.465 259.659L220.727 259.489L216.179 261.797L215.264 262L212.509 262.056L206.611 261.253L203.102 260.401L201.433 259.697L199.941 258.619L199.356 256.97L199.206 249.589L200.095 248.094L202.086 246.576L203.54 245.808L210.109 243.459L212.647 241.746L213.371 241.177ZM250.792 300.969L251.16 300.962L251.07 305.579L250.109 312.613C250.109 312.613 249.631 315.378 248.726 316.888C247.969 318.149 247.293 318.701 246.211 319.707C245.044 320.792 244.28 321.286 242.953 322.174C241.325 323.263 238.592 324.662 238.592 324.662L235.679 326.014L231.121 327.768L225.823 329.353L218.141 331.17L213.562 332.001L212.461 332.024L212.258 331.105L213.334 329.79L216.412 327.512L220.769 324.839L225.306 321.979L228.391 320.07L232.376 317.22L235.815 314.566L238.165 312.671L239.969 310.973L241.956 309.272L246.642 304.745L248.445 303.047L250.429 301.161L250.792 300.969ZM150.412 91.4479L155.19 91.3508L159.054 91.6415L163.111 92.2975L167.546 93.4996L171.251 94.9011L175.15 96.8526L177.385 98.2841L179.814 100.265L181.494 101.523L183.567 104.066L185.46 106.797L187.192 110.639L188.752 115.037L188.778 116.328L187.856 116.163L185.989 114.724L183.743 112.739L181.685 110.935L180.189 109.673L177.201 107.334L174.592 105.541L171.423 103.39L167.516 101.069L162.879 98.9481L158.436 97.377L152.715 96.201L149.951 95.8879L140.766 96.0746L135.457 97.1056L132.169 98.0954L131.067 98.1178L131.419 97.3722L133.234 96.2277L135.783 95.0683L141.261 93.2955L147.297 91.8805L150.412 91.4479ZM144.838 160.79L150.533 160.674L158.271 161.624L165.282 162.959L168.616 164.183L169.924 165.264L170.494 166.175L170.7 167.278L170.362 168.763L168.774 171.933L168.05 172.501L165.294 172.557L160.863 171.54L156.053 169.977L149.382 167.343L146.424 166.48L142.383 166.562L139.278 167.548L136.733 168.892L133.831 170.797L131.48 172.692L129.497 174.577L126.959 176.291L126.407 176.302L126.568 175.191L128.521 171.828L130.854 169.011L132.833 166.941L136.275 164.471L139.544 162.559L143.923 160.992L144.838 160.79Z"
      fill="white"
    />
    <path
      d="M223.203 154.028L226.844 154.323L230.691 155.352L234.163 156.758L239.386 159.606L240.166 160.328L238.442 160.179L233.63 158.8L229.986 158.321L221.571 158.492L216.049 159.711L212.25 161.081L205.813 164.35L205.243 164.546L203.903 164.573L204.268 163.642L205.768 162.136L208.403 160.052L211.234 158.148L214.072 156.613L218.25 155.051L221.485 154.247L223.203 154.028Z"
      fill="#181c25"
    />
    <path
      d="M154.564 198.067C154.564 198.067 156.526 198.211 157.727 198.556C159.034 198.932 159.713 199.323 160.909 199.969C162.049 200.585 162.634 201.027 163.703 201.759C164.497 202.301 165.703 203.194 165.703 203.194L167.298 204.085L167.309 204.639C167.309 204.639 164.504 206.058 162.623 206.765C160.901 207.411 159.912 207.732 158.119 208.148C156.754 208.466 155.977 208.611 154.585 208.774C152.292 209.043 150.909 209.479 148.676 208.894C147.361 208.55 145.495 207.482 145.495 207.482C145.495 207.482 144.739 207.087 144.298 206.768C143.786 206.396 143.093 205.684 143.093 205.684L143.082 205.131L145 206C145 206 146.509 206.403 147.5 206.5C148.472 206.595 149.194 206.828 150.284 206.768C151.574 206.696 152.321 206.719 153.5 206C154.401 205.45 154.922 204.956 155.275 203.96C155.596 203.055 155.589 202.461 155.5 201.5C155.426 200.698 155.359 199.929 155 199C154.855 198.625 154.564 198.067 154.564 198.067Z"
      fill="white"
    />
    <path
      d="M171.735 156.181L175.218 156.11L183.366 156.868L193.622 156.659L200.957 155.587L201.929 155.752L201.75 156.494L199.655 158.198L196.402 160.11L193.705 160.719L187.512 160.845L181.695 160.409L177.81 159.75L174.691 158.705L172.148 157.465L171.747 156.735L171.735 156.181Z"
      fill="#181c25"
    />
    <path
      d="M224.609 188.336L227.381 188.28L230.159 188.592L232.549 189.282L235.75 190.878L238.974 193.582L241.215 196.675L241.835 197.955L241.651 198.697L239.257 197.822L235.646 195.496L231.844 193.542L228.259 192.508L226.271 192.179L219.336 191.951L218.727 191.224L218.903 190.113L220.468 189.158L222.634 188.56L224.609 188.336Z"
      fill="white"
    />
    <path
      d="M224.807 144.58L229.674 144.481L233.388 145.144L236.72 146.183L239.079 147.244L240.46 148.139L240.468 148.508L235.406 148.61L229.554 148.175L225.272 148.262L214.196 149.596L212.639 149.627L213.013 148.881L216.48 146.965L219.378 145.798L222.478 144.996L224.807 144.58Z"
      fill="#181c25"
    />
    <path
      d="M145.882 259.903L146.446 259.891L147.842 263.74L150.86 273.278L151.27 274.931L151.288 275.854L151.104 276.042L149.034 276.084L147.514 275.377L146.552 274.289L145.773 273.013L144.761 269.526L144.546 268.238L144.441 263.071L144.776 261.032L145.51 260.095L145.882 259.903ZM150.666 189.654C151.323 189.581 151.698 189.604 152.359 189.62C153.543 189.647 154.219 189.676 155.376 189.927C156.601 190.193 158.409 190.974 158.409 190.974L160.505 192.224L163.18 194.2L164.711 195.461L165.874 197.098L166.078 197.834L165.133 197.668L160.949 195.537L158.104 194.488L155.267 193.806L154.135 193.645L146.226 193.437L146.033 193.256C146.033 193.256 146.002 192.432 146.196 191.96C146.411 191.436 146.675 191.194 147.113 190.834C147.671 190.377 148.108 190.292 148.792 190.061C149.501 189.822 149.922 189.737 150.666 189.654ZM173.672 228.878L174.989 228.851L176.321 229.562L177.665 230.827L178.642 232.653L178.684 234.683L177.408 236.739L176.106 237.505L175.361 237.889L172.919 238.123L171.591 237.597L170.823 236.873L170.206 234.302L170.369 233.007L171.08 230.961L172.555 229.454L173.672 228.878ZM150.946 101.59L152.451 101.56L154.72 102.068L158.512 103.467L161.741 104.879L165.549 107.016L167.464 108.639L168.995 109.9L169.955 110.804L170.162 111.723L169.413 111.922L166.173 109.957L162.173 107.639L157.801 105.513L154.762 104.097L151.156 102.694L150.965 102.513L150.946 101.59ZM190.975 256.033L192.673 256.183L193.827 257.451L194.61 258.912L195.017 260.381L194.858 261.861L194.124 262.799L192.438 263.202L190.742 263.053L189.598 262.337L188.826 261.429L188.432 260.515L188.406 259.223L189.308 257.359L190.603 256.225L190.975 256.033Z"
      fill="white"
    />
  </g>
  <defs>
    <clipPath id="clip0_15_63">
      <rect width="356" height="378" fill="white" />
    </clipPath>
  </defs>
</svg>
